<svg id="Capa_1" enable-background="new 0 0 512 512" height="512" viewBox="0 0 512 512" width="512" xmlns="http://www.w3.org/2000/svg"><g><g><g><path d="m344.347 277.753c4.114 4.114 3.9 10.903-.549 14.653-35.629 30.029-84.396 37.353-126.432 21.972 5.563-8.713 8.711-19.096 8.514-30.234-.513-29.059-24.32-52.866-53.38-53.379-11.138-.197-21.521 2.951-30.234 8.514-15.38-42.036-8.056-90.803 21.972-126.432 3.749-4.449 10.539-4.663 14.653-.549 22.318 22.318 164.846 164.846 165.456 165.455z" fill="#e7e7ef"/></g><g><path d="m309.786 146.858-32.389 63.942-31.552-31.553z" fill="#ffce62"/></g><g><circle cx="329.507" cy="127.138" fill="#ff5859" r="27.889"/></g><g><circle cx="171.521" cy="285.124" fill="#b7bcce" r="54.368"/></g><g><path d="m193.827 334.715v78.044h-44.622v-78.055c6.805 3.079 14.357 4.786 22.311 4.786s15.506-1.707 22.311-4.775z" fill="#f9f5f3"/></g><g><path d="m225.889 457.378h-107.341v-34.622c0-5.523 4.477-10 10-10h87.341c5.523 0 10 4.477 10 10z" fill="#e7e7ef"/></g><g><path d="m267.676 502h-192.321c-5.523 0-10-4.477-10-10v-24.622c0-5.523 4.477-10 10-10h192.321c5.523 0 10 4.477 10 10v24.622c0 5.523-4.477 10-10 10z" fill="#a0c8ff"/></g></g><g><path d="m356.299 153.929c14.772-14.772 14.772-38.81-.001-53.583-14.772-14.771-38.811-14.771-53.582 0-.001 0-.001 0-.001.001-11.533 11.534-14.061 28.715-7.584 42.726l-47.342 23.98c-.625-.625-1.252-1.251-1.881-1.881l-59.944-59.944c-3.958-3.958-9.439-6.089-15.027-5.854-5.548.235-10.776 2.797-14.344 7.029-30.04 35.644-39.738 84.504-26.097 129.162-14.249 11.816-23.342 29.645-23.342 49.56 0 23.719 12.905 44.467 32.053 55.633v61.999h-10.657c-11.028 0-20 8.972-20 20v24.622h-33.195c-11.028 0-20 8.972-20 20v24.621c0 11.028 8.972 20 20 20h192.32c11.028 0 20-8.972 20-20v-24.622c0-11.028-8.972-20-20-20h-31.787v-24.622c0-11.028-8.972-20-20-20h-12.062v-61.994c6.573-3.832 12.416-8.781 17.248-14.605 13.299 4.064 26.969 6.064 40.555 6.063 32.032-.001 63.584-11.073 88.613-32.168 4.23-3.566 6.793-8.794 7.028-14.342.237-5.593-1.896-11.07-5.854-15.028l-5.363-5.363c-3.906-3.904-10.236-3.904-14.143 0-3.905 3.905-3.905 10.237 0 14.143l5.35 5.376c-29.221 24.573-68.841 33.162-105.723 23.504 2.798-7.208 4.35-15.032 4.35-23.217 0-35.493-28.875-64.368-64.368-64.368-8.185 0-16.009 1.552-23.217 4.35-9.661-36.892-1.067-76.516 23.516-105.736l59.945 59.945c23.033 23.032 43.338 43.337 43.586 43.585 3.91 3.901 10.241 3.894 14.142-.014 3.863-3.871 3.889-10.112.096-14.022l23.984-47.349c5.038 2.329 10.486 3.494 15.935 3.494 9.703-.001 19.406-3.695 26.793-11.081zm-88.61 338.07s-.004.001-.013.001h-192.321v-24.622h192.32zm-51.8-44.621h-87.341v-24.622h87.341zm-32.062-44.622h-24.622v-54.459c3.989.776 8.103 1.195 12.315 1.195 4.209 0 8.321-.419 12.307-1.194zm32.062-117.632c0 24.465-19.903 44.368-44.368 44.368s-44.368-19.903-44.368-44.368 19.903-44.368 44.368-44.368c24.464 0 44.368 19.903 44.368 44.368zm46.781-103.189 24.4-12.359-12.359 24.399c-3.572-3.571-7.644-7.643-12.041-12.04zm54.193-42.142c-.002-.002-.003-.004-.005-.006s-.004-.003-.005-.005c-6.969-6.976-6.967-18.321.005-25.294 6.977-6.974 18.325-6.973 25.299-.001 6.975 6.976 6.975 18.325.001 25.3-6.976 6.973-18.32 6.973-25.295.006z"/><path d="m329.537 44.631c-.011 0-.024 0-.035 0-5.524.002-9.998 4.481-9.996 10.004.002 5.521 4.479 9.996 10 9.996.006-.006.021-.001.031 0 16.679 0 32.364 6.501 44.17 18.307 11.813 11.812 18.314 27.508 18.307 44.197-.002 5.522 4.473 10.002 9.996 10.004h.004c5.521 0 9.998-4.475 10-9.996.009-22.034-8.572-42.756-24.164-58.348-15.584-15.584-36.29-24.164-58.313-24.164z"/><path d="m419.402 37.242c-24.007-24.007-55.932-37.233-89.893-37.242-.001 0-.002 0-.003 0-5.521 0-9.999 4.476-10 9.997-.001 5.523 4.475 10.002 9.997 10.003 28.622.008 55.526 11.153 75.757 31.385 20.231 20.23 31.377 47.135 31.385 75.757.001 5.521 4.478 9.997 10 9.997h.003c5.522-.001 9.998-4.48 9.997-10.003-.009-33.961-13.236-65.886-37.243-89.894z"/><circle cx="310.699" cy="244.105" r="10"/></g></g></svg>